<svg xmlns="http://www.w3.org/2000/svg" xmlns:xlink="http://www.w3.org/1999/xlink" version="1.1" id="Layer_1" x="0px" y="0px" width="100%" viewBox="0 0 100 100" enable-background="new 0 0 100 100" xml:space="preserve">
<path fill="#000000" opacity="0.000000" stroke="none" d=" M1.000000,90.000000   C1.000000,60.391907 1.000000,30.783812 1.000000,1.087858   C34.333256,1.087858 67.666595,1.087858 101.000000,1.087858   C101.000000,11.771469 101.000000,22.417076 100.695816,33.820969   C97.264420,29.373011 93.569717,25.363018 86.617264,25.922132   C80.773445,26.392094 75.764549,30.242184 75.005173,35.675037   C74.010231,42.793331 76.945442,48.483490 83.098984,50.531326   C87.350883,51.946320 95.551216,51.392494 98.384369,45.243763   C98.821335,44.295448 100.106888,43.738136 101.000000,43.000000   C101.000000,62.273857 101.000000,81.547714 101.000000,100.910782   C67.666870,100.910782 34.333447,100.910782 1.000000,100.910782   C1.000000,99.658379 1.000000,98.329147 1.309793,96.194901   C4.569780,97.473907 7.460371,97.455299 9.799501,94.613518   C18.228674,84.373032 25.738745,73.605034 28.070259,60.177811   C33.238983,60.177811 38.035309,60.177811 42.786407,60.177811   C45.641380,72.173660 51.249271,82.400574 59.011429,91.816536   C63.513855,97.278244 68.290733,98.625359 74.541977,96.971199   C81.060654,95.246269 86.805359,92.490906 88.013725,84.870262   C89.407104,76.082764 90.716675,67.281334 91.972679,58.473125   C92.298447,56.188553 92.233490,53.163216 89.365822,53.303226   C87.571877,53.390820 85.715248,55.824661 84.262924,57.526703   C83.665878,58.226421 84.145599,59.782326 83.985672,60.927860   C82.999557,67.990967 82.309059,75.119316 80.843483,82.083542   C79.769356,87.187592 75.157639,89.129166 70.590416,89.601280   C68.760811,89.790413 66.196564,87.802109 64.770691,86.122414   C58.256241,78.448318 53.191414,69.911385 50.982800,59.942230   C47.291256,43.279476 43.665558,26.602139 39.989811,9.935864   C39.415741,7.332961 39.193596,4.309036 35.600723,4.040425   C32.353680,3.797670 31.616659,6.587132 31.160213,8.756563   C28.635101,20.758162 26.609436,32.868237 23.929451,44.832912   C21.199245,57.021801 18.838964,69.485634 10.948744,79.719887   C8.055476,83.472694 4.340267,86.591812 1.000000,90.000000  z"/>
<path fill="#e78229" opacity="1.000000" stroke="none" d=" M1.000000,90.428467   C4.340267,86.591812 8.055476,83.472694 10.948744,79.719887   C18.838964,69.485634 21.199245,57.021801 23.929451,44.832912   C26.609436,32.868237 28.635101,20.758162 31.160213,8.756563   C31.616659,6.587132 32.353680,3.797670 35.600723,4.040425   C39.193596,4.309036 39.415741,7.332961 39.989811,9.935864   C43.665558,26.602139 47.291256,43.279476 50.982800,59.942230   C53.191414,69.911385 58.256241,78.448318 64.770691,86.122414   C66.196564,87.802109 68.760811,89.790413 70.590416,89.601280   C75.157639,89.129166 79.769356,87.187592 80.843483,82.083542   C82.309059,75.119316 82.999557,67.990967 83.985672,60.927860   C84.145599,59.782326 83.665878,58.226421 84.262924,57.526703   C85.715248,55.824661 87.571877,53.390820 89.365822,53.303226   C92.233490,53.163216 92.298447,56.188553 91.972679,58.473125   C90.716675,67.281334 89.407104,76.082764 88.013725,84.870262   C86.805359,92.490906 81.060654,95.246269 74.541977,96.971199   C68.290733,98.625359 63.513855,97.278244 59.011429,91.816536   C51.249271,82.400574 45.641380,72.173660 42.786407,60.177811   C38.035309,60.177811 33.238983,60.177811 28.070259,60.177811   C25.738745,73.605034 18.228674,84.373032 9.799501,94.613518   C7.460371,97.455299 4.569780,97.473907 1.309793,95.694946   C1.000000,94.285645 1.000000,92.571281 1.000000,90.428467  M37.327126,51.999809   C38.211559,51.078373 39.977413,49.996269 39.843292,49.260506   C38.582920,42.346230 36.997822,35.491142 35.402157,28.138046   C33.817665,36.329670 32.337307,43.982937 30.786583,51.999992   C33.124386,51.999992 34.767944,51.999992 37.327126,51.999809  z"/>
<path fill="#e78229" opacity="1.000000" stroke="none" d=" M101.000000,42.550018   C100.106888,43.738136 98.821335,44.295448 98.384369,45.243763   C95.551216,51.392494 87.350883,51.946320 83.098984,50.531326   C76.945442,48.483490 74.010231,42.793331 75.005173,35.675037   C75.764549,30.242184 80.773445,26.392094 86.617264,25.922132   C93.569717,25.363018 97.264420,29.373011 100.695816,34.289627   C101.000000,36.700012 101.000000,39.400028 101.000000,42.550018  M86.678879,34.001930   C83.290459,34.599430 82.253380,37.159996 83.215485,39.787251   C83.746216,41.236557 86.343025,42.847660 87.892174,42.738365   C89.340790,42.636162 91.440964,40.557529 91.826714,38.996063   C92.570427,35.985611 90.933998,33.952431 86.678879,34.001930  z"/>
<path fill="#000000" opacity="0.000000" stroke="none" d=" M36.869312,51.999901   C34.767944,51.999992 33.124386,51.999992 30.786583,51.999992   C32.337307,43.982937 33.817665,36.329670 35.402157,28.138046   C36.997822,35.491142 38.582920,42.346230 39.843292,49.260506   C39.977413,49.996269 38.211559,51.078373 36.869312,51.999901  z"/>
<path fill="#000000" opacity="0.000000" stroke="none" d=" M87.089439,34.001102   C90.933998,33.952431 92.570427,35.985611 91.826714,38.996063   C91.440964,40.557529 89.340790,42.636162 87.892174,42.738365   C86.343025,42.847660 83.746216,41.236557 83.215485,39.787251   C82.253380,37.159996 83.290459,34.599430 87.089439,34.001102  z"/>
</svg>